# xmcd CD database file
#
# Track frame offsets:
#	150
#	16532
#	33660
#	52825
#	70627
#	85105
#	102952
#	121900
#	141247
#	157830
#	177187
#	194787
#	215347
#	238212
#	254032
#	266215
#
# Disc length: 3737 seconds
#
# Revision: 0
# Processed by: cddbd v1.5.1PL0 Copyright (c) Steve Scherf et al.
# Submitted via: CDex 1.51
#
DISCID=df0e9710
DTITLE=Various Artist - New Music Best Collection 11
DYEAR=1991
DGENRE=Japanese Pop
TTITLE0=イルカ - なごり雪
TTITLE1=イルカ - 海岸通り
TTITLE2=かぐや姫 - 妹
TTITLE3=かぐや姫 - 赤ちょうちん
TTITLE4=風 - 22才の別れ
TTITLE5=風 - ささやかなこの人生
TTITLE6=沢田聖子 - シオン
TTITLE7=沢田聖子 - 星空のメッセージ
TTITLE8=南こうせつ - 夏の少女
TTITLE9=南こうせつ - 夢一夜
TTITLE10=南こうせつ - 旅立つ想い
TTITLE11=イルカ - Follow Me
TTITLE12=イルカ - 夜明けのグッドバイ
TTITLE13=イルカ - 雨の物語
TTITLE14=かぐや姫 - 僕の胸でおやすみ
TTITLE15=かぐや姫 - 神田川
EXTD=YEAR: 1991
EXTT0=
EXTT1=
EXTT2=
EXTT3=
EXTT4=
EXTT5=
EXTT6=
EXTT7=
EXTT8=
EXTT9=
EXTT10=
EXTT11=
EXTT12=
EXTT13=
EXTT14=
EXTT15=
PLAYORDER=
